<svg xmlns="http://www.w3.org/2000/svg" viewBox="0 0 127.23 74.22"><defs><style>.cls-1{fill:none;stroke:#f1f1f1;stroke-linecap:round;stroke-miterlimit:10;stroke-width:10px;}</style></defs><g fill="#f1f1f1"><path d="M9.11,1.72c.37,0,.72,0,1.05,0s.68.07,1,.13A4.91,4.91,0,0,1,14,3.36a9.55,9.55,0,0,1,1.66,2.5,15.56,15.56,0,0,1,1,3A22.1,22.1,0,0,1,17.23,12c.11,1.08.2,2.12.25,3.13.06,1.29.07,2.59,0,3.87s-.11,2.57-.25,3.83-.34,2.64-.61,4a10.09,10.09,0,0,1-1.45,3.59A7.56,7.56,0,0,1,13,32.61a7.77,7.77,0,0,1-2.73,1.16,8.4,8.4,0,0,1-2.65.08A6.61,6.61,0,0,1,5.07,33a6.86,6.86,0,0,1-1.91-1.68,11.61,11.61,0,0,1-1.37-2.36,12.6,12.6,0,0,1-1-4.16C.71,23.59.64,22.41.59,21.23S.53,18.88.53,17.7A46.44,46.44,0,0,1,.78,13c.06-.64.12-1.28.17-1.91s.14-1.26.25-1.88.21-1,.3-1.43A5.73,5.73,0,0,1,2,6.39,12.37,12.37,0,0,1,2.7,5,5.71,5.71,0,0,1,3.64,3.9,7.14,7.14,0,0,1,5.7,2.47,9,9,0,0,1,8.06,1.8a3,3,0,0,1,.53,0A3,3,0,0,0,9.11,1.72ZM9,28.17a2.72,2.72,0,0,0,1.55-.5,2.67,2.67,0,0,0,1-1.35,13.68,13.68,0,0,0,.51-1.85,26.62,26.62,0,0,0,.37-4.12c0-1.46,0-2.86,0-4.21,0-.53,0-1.1,0-1.7s-.08-1.2-.15-1.79a13.1,13.1,0,0,0-.31-1.7A5.43,5.43,0,0,0,11.3,9.5a3.27,3.27,0,0,0-1-1.1A1.82,1.82,0,0,0,9,8.11a2.86,2.86,0,0,0-1.31.51,3,3,0,0,0-1,1.26l-.38.88A10,10,0,0,0,6,12.42c-.09.58-.16,1.14-.21,1.7s-.1,1.14-.13,1.73,0,1.16,0,1.72a12.73,12.73,0,0,1,0,1.64,9.13,9.13,0,0,0,0,1.65c.06.72.13,1.51.23,2.35a13.55,13.55,0,0,0,.49,2.38,5,5,0,0,0,1,1.85A2.1,2.1,0,0,0,9,28.17ZM29.51,53.54c-.05.58-.1,1.15-.12,1.7a11.31,11.31,0,0,1-.22,1.7q-.08.29-.12.51c0,.14-.07.31-.13.5a4.53,4.53,0,0,1-.75,1.59,1.78,1.78,0,0,1-2.15.51,2,2,0,0,1-1.09-.87,4,4,0,0,1-.57-1.48q-.2-.9-.3-1.77a12.83,12.83,0,0,1-.1-1.52V8.07c0-.68,0-1.35.08-2a16.73,16.73,0,0,1,.26-1.88,4.38,4.38,0,0,1,.46-1.37,2.06,2.06,0,0,1,1-1,3.2,3.2,0,0,1,1.09-.18,1.74,1.74,0,0,1,1.32.69A4.08,4.08,0,0,1,29,4.24a14.87,14.87,0,0,1,.42,3.18c0,1.11.05,2.21.08,3.32v.36c.06,3.72.07,7.52,0,11.43s0,7.59,0,11.06V50.94c0,.43,0,.87,0,1.3A11.25,11.25,0,0,1,29.51,53.54Z"/><path d="M43.49,27.26c0-.34-.05-.68-.05-1V10.52a11.11,11.11,0,0,0-.08-1.39c0-.14-.06-.34-.11-.59s-.13-.41-.27-.46A.78.78,0,0,0,42.5,8,1.86,1.86,0,0,1,42,8a1.82,1.82,0,0,0-.57,0,1.75,1.75,0,0,1-.56,0h-2a11.37,11.37,0,0,1-1.43,0A11.37,11.37,0,0,0,36,8a2.57,2.57,0,0,1-.61,0l-.61,0c-.31,0-.63,0-1,0a1.81,1.81,0,0,1-.92-.34,2,2,0,0,1-.8-1.05,4.07,4.07,0,0,1-.21-1.3,3.29,3.29,0,0,1,.33-1.6,1.44,1.44,0,0,1,.55-.72,1.66,1.66,0,0,1,.61-.35c.27-.1.5-.18.69-.23a9.27,9.27,0,0,1,1.85-.24l1.9,0h7.32c.36.06.75.11,1.15.15a3.91,3.91,0,0,1,1.12.27,3.67,3.67,0,0,1,.65.34,1.94,1.94,0,0,1,.52.51A2.7,2.7,0,0,1,49,4.5c0,.4.09.83.14,1.31.06.78.09,1.56.09,2.33V24.27s0,.25,0,.65,0,.89,0,1.43v1.73c0,.6,0,1.13,0,1.58,0,.28-.07.57-.13.88a4.28,4.28,0,0,1-.27.88,2.61,2.61,0,0,1-.53.76,2.55,2.55,0,0,1-.88.55A3.84,3.84,0,0,1,46,33a2.81,2.81,0,0,1-1.09-.23,1.4,1.4,0,0,1-.76-.69,6.6,6.6,0,0,1-.67-3ZM58,19.39l-.93,0c-.48,0-.83,0-1,0l-.78,0a3.82,3.82,0,0,1-.69-.11,2.75,2.75,0,0,1-.65-.08l-.66-.21a2.89,2.89,0,0,1-.88-.72c-.14-.19-.26-.38-.36-.54a1.15,1.15,0,0,1-.14-.59,3,3,0,0,1,.06-1.18,2.21,2.21,0,0,1,.44-1,2.83,2.83,0,0,1,.23-.34l.27-.29a1.93,1.93,0,0,1,.55-.32l.55-.19a5.4,5.4,0,0,1,.86-.08h3.26v-3a8.79,8.79,0,0,0,0-.92,8.45,8.45,0,0,1,0-.89v-2c0-.65,0-1.32.08-2a8.58,8.58,0,0,1,.11-1.31,6.83,6.83,0,0,1,.31-1.26,2.7,2.7,0,0,1,.59-1,1.81,1.81,0,0,1,1.26-.5h.09a2.89,2.89,0,0,1,1.43.31,2.81,2.81,0,0,1,.9.85,3.43,3.43,0,0,1,.51,1.19,8.92,8.92,0,0,1,.18,1.35,18.6,18.6,0,0,1,.13,2.27V27.51c0,.95,0,1.93,0,2.92a7.89,7.89,0,0,1-.42,2.84,2.58,2.58,0,0,1-.54.89l-.38.21a5.49,5.49,0,0,1-.51.21l-.48.12a2.37,2.37,0,0,1-.44,0,2.08,2.08,0,0,1-1.54-.57,3.59,3.59,0,0,1-.86-1.39,7.09,7.09,0,0,1-.38-1.7A15.36,15.36,0,0,1,58,29.53V26.31c0-.63,0-1.27,0-1.93s0-1.31,0-1.94,0-1.21,0-1.74Z"/><path d="M13,58.4a12.1,12.1,0,0,1-1.32,0c-.69,0-1.43,0-2.21,0l-2.23,0H5.79c-.51,0-1,0-1.49,0a10.43,10.43,0,0,1-1.41-.12,4.46,4.46,0,0,1-1.22-.36,2.11,2.11,0,0,1-.89-.76,3.51,3.51,0,0,1-.52-1.39q-.15-.84-.21-1.62a10.94,10.94,0,0,1,0-1.36c0-.4,0-.61,0-.63v-2c0-.39,0-.83,0-1.31s0-1,0-1.49,0-.93,0-1.32V44.23a6.58,6.58,0,0,1,0-.74,7.82,7.82,0,0,1,.13-.8A1.84,1.84,0,0,1,.53,42a2.89,2.89,0,0,1,.78-.86,2.77,2.77,0,0,1,1-.4A3.92,3.92,0,0,1,3,40.72l.8-.07c.31,0,.63,0,1,0h9.5a13.66,13.66,0,0,1,2,.15,4.54,4.54,0,0,1,1.83.65,2.1,2.1,0,0,1,.88,1,4.68,4.68,0,0,1,.34,1.26,7.79,7.79,0,0,1,0,1.37c0,.46,0,.89,0,1.28s0,.89,0,1.32a11.84,11.84,0,0,0,0,1.33v2.31a1.45,1.45,0,0,0,0,.47c0,.16,0,.33,0,.5a4.28,4.28,0,0,0,0,1.07c0,.35,0,.72,0,1.12a8.74,8.74,0,0,1-.06,1,5,5,0,0,1-.26,1.05,3.38,3.38,0,0,1-.5.94,1.67,1.67,0,0,1-.82.59,5.44,5.44,0,0,1-2.29.44Zm13,4.29a5.93,5.93,0,0,1,2,.21,3,3,0,0,1,1.15.68,2,2,0,0,1,.55.92,4.44,4.44,0,0,1,.13,1v4.88a11.43,11.43,0,0,1,0,1.85,2.11,2.11,0,0,1-.7,1.43,2.25,2.25,0,0,1-1.58.55l-.75,0a2.6,2.6,0,0,1-.76-.11,2,2,0,0,1-.86-.5,2.67,2.67,0,0,1-.49-.76,3.29,3.29,0,0,1-.21-.9c0-.33-.05-.64-.08-1,0-.11,0-.33,0-.65s0-.66,0-1,0-.68,0-1a4,4,0,0,0-.07-.63,3.74,3.74,0,0,0-.69-.09c-.38,0-1.09,0-2.13,0s-1.45,0-1.66,0a.9.9,0,0,0-.36.07H4.19l0,0a5.53,5.53,0,0,1-.88-.33,2.81,2.81,0,0,1-.66-.46,1.11,1.11,0,0,1-.35-.76,3.21,3.21,0,0,1,.54-2.53,1.9,1.9,0,0,1,1.1-.69l.63-.11ZM7.6,45.87H6.9a1.89,1.89,0,0,0-.56.08,1.32,1.32,0,0,0-1,.51,1.07,1.07,0,0,0-.19.63c0,.28,0,.45,0,.5v1.77a4.66,4.66,0,0,0,0,.61v1c0,.33,0,.61,0,.84a3.87,3.87,0,0,0,.1.67,1.4,1.4,0,0,0,1.39,1.08c.51,0,1,.06,1.51.06h0c.73,0,1.33,0,1.8,0l1.86,0c.22,0,.45,0,.69,0a2.61,2.61,0,0,0,.69-.06.69.69,0,0,0,.47-.21,1.91,1.91,0,0,0,.21-.43,2.6,2.6,0,0,0,.08-.54,9,9,0,0,0,.17-1.81c0-.45,0-.9,0-1.35s0-.89,0-1.34a3,3,0,0,1,0-.67,2.61,2.61,0,0,0-.06-.68.72.72,0,0,0-.55-.52,3.91,3.91,0,0,0-.76-.07Zm16.3,6.27L22.1,52a1.5,1.5,0,0,1-1.25-.91,2.34,2.34,0,0,1-.21-1,7,7,0,0,1,.07-1.09,1.68,1.68,0,0,1,.38-.78,2.08,2.08,0,0,1,1-.52,2.79,2.79,0,0,1,.52-.07l.82-.06.81-.06c.26,0,.43,0,.53,0V43.81a7.22,7.22,0,0,1,0-.93,4.83,4.83,0,0,1,.12-.92c.05-.23.09-.44.14-.63a1.78,1.78,0,0,1,.31-.64,1.53,1.53,0,0,1,.78-.58,2.36,2.36,0,0,1,1.1-.09,1.71,1.71,0,0,1,1.42,1,3.87,3.87,0,0,1,.26,1.24c0,.5,0,.8,0,.91V56.93h0a2.38,2.38,0,0,1,0,.3,5.72,5.72,0,0,1-.13.61,3.78,3.78,0,0,1-.32.73,2,2,0,0,1-.55.63,1.69,1.69,0,0,1-1,.34,2,2,0,0,1-1.73-1.31,3.48,3.48,0,0,1-.28-.92c-.05-.31-.08-.62-.1-.93V52.14Z"/><path d="M42.55,40.19c.36,0,.72,0,1.05,0s.67.07,1,.13a5,5,0,0,1,2.82,1.47,9.55,9.55,0,0,1,1.66,2.5,15.56,15.56,0,0,1,1,3,24.14,24.14,0,0,1,.55,3.17c.11,1.08.19,2.13.25,3.14.06,1.29.07,2.58,0,3.87s-.11,2.56-.25,3.83-.34,2.64-.61,4a10.21,10.21,0,0,1-1.45,3.6,7.65,7.65,0,0,1-2.19,2.2,7.77,7.77,0,0,1-2.73,1.16,8.11,8.11,0,0,1-2.65.08,6.61,6.61,0,0,1-2.57-.88,6.86,6.86,0,0,1-1.91-1.68,10.92,10.92,0,0,1-1.37-2.36,12.81,12.81,0,0,1-1-4.16c-.11-1.18-.19-2.36-.23-3.53S34,57.35,34,56.17c0-.81,0-1.6,0-2.37a23.34,23.34,0,0,1,.15-2.34c0-.64.12-1.28.21-1.91s.18-1.26.29-1.87.21-1,.3-1.43a5.39,5.39,0,0,1,.46-1.39,10.88,10.88,0,0,1,.74-1.35,5.38,5.38,0,0,1,.94-1.13A6.77,6.77,0,0,1,39.14,41a9,9,0,0,1,2.36-.68,4.38,4.38,0,0,1,.52,0A3,3,0,0,0,42.55,40.19Zm-.13,26.46A2.74,2.74,0,0,0,44,66.14a2.66,2.66,0,0,0,1-1.34,14.13,14.13,0,0,0,.5-1.85,26.72,26.72,0,0,0,.38-4.13c0-1.45,0-2.86,0-4.2,0-.53,0-1.1,0-1.71s-.08-1.19-.15-1.78a13.26,13.26,0,0,0-.31-1.71A5.57,5.57,0,0,0,44.74,48a3.23,3.23,0,0,0-1-1.09,1.9,1.9,0,0,0-1.26-.3,2.82,2.82,0,0,0-1.31.51,3.12,3.12,0,0,0-1,1.26l-.37.88a10.25,10.25,0,0,0-.38,1.66q-.13.87-.21,1.71c-.06.56-.1,1.13-.13,1.72s0,1.17,0,1.73a12.75,12.75,0,0,1,0,1.64,9,9,0,0,0,0,1.64c.06.73.13,1.51.23,2.35a14.32,14.32,0,0,0,.48,2.38,5.16,5.16,0,0,0,1,1.85A2.11,2.11,0,0,0,42.42,66.65Zm15.23-8.08a14.2,14.2,0,0,0-1.56-.1,13.79,13.79,0,0,1-1.55-.11,2.48,2.48,0,0,1-2.11-1.09,3.14,3.14,0,0,1-.16-2.61,2.15,2.15,0,0,1,.35-.72,3.44,3.44,0,0,1,.53-.58,3.07,3.07,0,0,1,1.18-.55,9.23,9.23,0,0,1,1.62,0,12.45,12.45,0,0,0,1.66,0h.12v-.17a7,7,0,0,1,0-.76c0-.17,0-.32,0-.46s0-.3,0-.47a7.38,7.38,0,0,1,0-.8c0-.72,0-1.45,0-2.16s0-1.42,0-2.13V45.2q0-.56,0-1.2a11.55,11.55,0,0,1,.1-1.31,5.88,5.88,0,0,1,.29-1.22,2.69,2.69,0,0,1,.59-.94A2,2,0,0,1,60.09,40h.08a2.42,2.42,0,0,1,1.62.61A3.63,3.63,0,0,1,62.72,42a6.2,6.2,0,0,1,.4,1.66c.05.57.08,1.09.08,1.53V70.79a6,6,0,0,1-.08.86,7.44,7.44,0,0,1-.25,1,2,2,0,0,1-.55.84,2.1,2.1,0,0,1-.84.47,3.52,3.52,0,0,1-1,.16,2,2,0,0,1-1.6-.67,2.53,2.53,0,0,1-.67-1.22A13,13,0,0,1,58,70.9a2.28,2.28,0,0,0,0-.26,1.28,1.28,0,0,1,0-.29,10.86,10.86,0,0,1-.09-1.43c0-.51,0-1,0-1.52,0-.3,0-.61,0-.9v-3c0-.46,0-.94,0-1.45s0-1,0-1.43V59A1.17,1.17,0,0,0,57.65,58.57Z"/><path d="M94.12,55.37a8.35,8.35,0,0,1,1.45.22,3.23,3.23,0,0,1,1.32.63,1.53,1.53,0,0,1,.59,1.3,3.2,3.2,0,0,1-.15.92,1.43,1.43,0,0,1-.39.72,2,2,0,0,1-.87.48,6.49,6.49,0,0,1-1,.21,5.8,5.8,0,0,1-.86.07h-.4L71.36,60c-.64,0-1.31,0-2,0a2.88,2.88,0,0,1-1.74-.63,2,2,0,0,1-1-1.64,2.17,2.17,0,0,1,.4-1.2,1.93,1.93,0,0,1,1.07-.82,5.1,5.1,0,0,1,1.81-.27q.93,0,1.89,0c.68,0,1.26,0,1.75,0H75l1.45,0c.51,0,1.11,0,1.81,0v-2c-.22,0-.46,0-.69,0h-.7c-1.34,0-2.68,0-4,0a12.07,12.07,0,0,1-1.79-.13,3.42,3.42,0,0,1-1.62-.67,2.8,2.8,0,0,1-.74-1,5.89,5.89,0,0,1-.4-1.13,7.7,7.7,0,0,1-.16-1c0-.28,0-.44,0-.46V42.34a3.49,3.49,0,0,1,.4-1.58,1.67,1.67,0,0,1,1.33-.91,4.14,4.14,0,0,1,.92,0,3.24,3.24,0,0,1,1,.25,2.16,2.16,0,0,1,.76.54,1.75,1.75,0,0,1,.4.87,2.7,2.7,0,0,1,0,.86,1.52,1.52,0,0,0,.1.86c.06.14.2.2.42.19a2.31,2.31,0,0,1,.55,0,12.8,12.8,0,0,0,2,0c.65,0,1.32-.06,2-.06H89.53a3.07,3.07,0,0,1,.59,0,2.42,2.42,0,0,0,.67,0l.64-.13a3,3,0,0,0,.08-.67V42a3.54,3.54,0,0,1,.34-1.37,1.45,1.45,0,0,1,1.05-.78,3.42,3.42,0,0,1,2.35.21,2.05,2.05,0,0,1,.84,2c0,1.26,0,2.64,0,4.13A37.24,37.24,0,0,1,96,50.37a4.12,4.12,0,0,1-.25,1,5.83,5.83,0,0,1-.51.88,2,2,0,0,1-.88.69,4.57,4.57,0,0,1-1.18.32,8.88,8.88,0,0,1-1.26.08l-2.29,0h-.91l-.9,0-1.16,0-1.3,0c-.39,0-.79,0-1.18,0,0,.3,0,.64,0,1v1c.79,0,1.63,0,2.53,0l2.69,0H92C92.83,55.33,93.53,55.35,94.12,55.37ZM68.75,73.42a.23.23,0,0,1-.12-.09,1.65,1.65,0,0,1-.57-.92,4.27,4.27,0,0,1-.15-1c0-.51-.06-1-.1-1.52s-.07-1-.07-1.47v-2A10,10,0,0,1,68,64.46a2.58,2.58,0,0,1,.43-1.07,2,2,0,0,1,.92-.66,6.6,6.6,0,0,1,2.36-.46H91.47c.53,0,1.08.07,1.64.13a5.48,5.48,0,0,1,1.6.42,1.88,1.88,0,0,1,1.11,1,4.81,4.81,0,0,1,.36,1.45c0,.47,0,1,.06,1.64s0,1.24,0,1.87-.07,1.25-.13,1.87a8.88,8.88,0,0,1-.29,1.68,4.88,4.88,0,0,1-.29.82,1.08,1.08,0,0,1-.68.53,3.87,3.87,0,0,1-.94.21c-.33,0-.64,0-1,0L71,73.8c-.37,0-.76,0-1.18,0A1.87,1.87,0,0,1,68.75,73.42Zm4-4.8c0,.15,0,.28,0,.42a.37.37,0,0,0,.15.3.45.45,0,0,0,.27.1,2.6,2.6,0,0,0,.4,0,3.62,3.62,0,0,0,.51,0H87.26l1.14.09c.3,0,.63,0,1,0a5.28,5.28,0,0,0,.93-.08c.28,0,.45-.12.5-.26a2.18,2.18,0,0,0,.13-.59,5.88,5.88,0,0,0,0-.77,1.23,1.23,0,0,0-.25-.78,1.07,1.07,0,0,0-.82-.36,7.24,7.24,0,0,0-1,0H77.25a15.86,15.86,0,0,0-1.81-.06l-1.81.06-.52,0c-.13,0-.22.15-.28.4a2.37,2.37,0,0,0-.08.57v.53a.23.23,0,0,1,0,.16A1.25,1.25,0,0,0,72.75,68.62ZM73,48.81a.72.72,0,0,0,.4.53,2.24,2.24,0,0,0,.72.19c.26,0,16,0,16.17.06a2.3,2.3,0,0,0,1-.19,3.25,3.25,0,0,0,0-1.64,2.41,2.41,0,0,0-1-.33,2.55,2.55,0,0,0-.55,0S75,47.23,74.56,47.26a2.72,2.72,0,0,0-1.16.29.91.91,0,0,0-.48.88.79.79,0,0,0,0,.24A.74.74,0,0,1,73,48.81Z"/><circle cx="107.9" cy="69.22" r="5"/></g><path class="cls-1" d="M107.9,56.22V42.69c0-5.57,23.91-17.76,10-32.62S88,17.71,88,17.71"/></svg>